<svg id="Layer_1" data-name="Layer 1" xmlns="http://www.w3.org/2000/svg" viewBox="0 0 1174.62 613.66"><defs><style>.cls-1{fill:none;}.cls-2{fill:#242424;}.cls-3{fill:#60923f;}.cls-4{fill:#181818;}.cls-5{fill:#56883d;}</style></defs><line class="cls-1" x1="586.88" y1="307.26" x2="587.74" y2="306.4"/><path class="cls-2" d="M596.75,335.71l3.66-7.72c5.15,4.65,14,8,22.88,8,12,0,17.13-4.66,17.13-10.7,0-16.93-42-6.24-42-32,0-10.7,8.32-19.81,26.54-19.81,8.12,0,16.54,2.18,22.28,6.14L644,287.58a35.8,35.8,0,0,0-19-5.64c-11.78,0-16.83,4.95-16.83,11,0,16.93,42,6.34,42,31.79,0,10.59-8.51,19.7-26.83,19.7C612.69,344.42,602.29,340.86,596.75,335.71Z"/><path class="cls-2" d="M714.88,335v8.61h-50.3V274.31h48.91v8.62h-39v21.29h34.76v8.42H674.48V335Z"/><path class="cls-2" d="M725,309c0-20.5,15.65-35.45,36.74-35.45,10.69,0,20,3.67,26.34,10.8l-6.44,6.23a25.67,25.67,0,0,0-19.5-8.21c-15.65,0-27.24,11.28-27.24,26.63s11.59,26.64,27.24,26.64a25.74,25.74,0,0,0,19.5-8.32l6.44,6.24c-6.34,7.13-15.65,10.89-26.44,10.89C740.63,344.42,725,329.47,725,309Z"/><path class="cls-2" d="M801.33,313.73V274.31h9.9v39c0,15.35,7,22.28,19.5,22.28s19.61-6.93,19.61-22.28v-39H860v39.42c0,20.1-11,30.69-29.31,30.69S801.33,333.83,801.33,313.73Z"/><path class="cls-2" d="M926.59,343.63l-15-21.29c-1.39.1-2.88.2-4.36.2H890.15v21.09h-9.91V274.31h27c18,0,28.91,9.11,28.91,24.17,0,10.69-5.54,18.41-15.25,21.88l16.44,23.27Zm-.3-45.15c0-9.91-6.63-15.55-19.31-15.55H890.15v31.19H907C919.66,314.12,926.29,308.38,926.29,298.48Z"/><path class="cls-2" d="M952.23,274.31h9.9v69.32h-9.9Z"/><path class="cls-2" d="M996.69,282.93H972.92v-8.62h57.34v8.62H1006.5v60.7h-9.81Z"/><path class="cls-2" d="M1066.8,319.67v24H1057V319.47l-27.53-45.16h10.59l22.18,36.54,22.28-36.54h9.81Z"/><path class="cls-3" d="M597.44,216.77c0-20.5,15.65-35.45,36.74-35.45,10.69,0,20,3.66,26.34,10.79l-6.44,6.24a25.67,25.67,0,0,0-19.51-8.22c-15.64,0-27.23,11.29-27.23,26.64s11.59,26.63,27.23,26.63a25.78,25.78,0,0,0,19.51-8.31l6.44,6.23c-6.34,7.13-15.65,10.9-26.44,10.9C613.09,252.22,597.44,237.26,597.44,216.77Z"/><path class="cls-3" d="M700,227.46v24h-9.81V227.26l-27.53-45.15h10.6l22.18,36.54,22.28-36.54h9.8Z"/><path class="cls-3" d="M796,232.71c0,11.88-9,18.71-26.54,18.71H736.37V182.11h31.09c15.94,0,24.85,6.73,24.85,17.92,0,7.53-3.86,12.78-9.3,15.45C790.83,217.66,796,223.5,796,232.71Zm-49.71-42.58v22.18h20.3c10.1,0,15.84-3.76,15.84-11.09s-5.74-11.09-15.84-11.09ZM786,231.92c0-8-5.94-11.59-16.94-11.59H746.27V243.4H769C780,243.4,786,239.94,786,231.92Z"/><path class="cls-3" d="M861.63,242.81v8.61H811.32V182.11h48.92v8.61h-39V212H856v8.42H821.22v22.38Z"/><path class="cls-3" d="M924,251.42l-15-21.29c-1.39.1-2.87.2-4.36.2H887.57v21.09h-9.9V182.11h27c18,0,28.92,9.11,28.92,24.16,0,10.69-5.55,18.42-15.25,21.88l16.43,23.27Zm-.3-45.15c0-9.9-6.63-15.55-19.31-15.55H887.57v31.2H904.4C917.08,221.92,923.71,216.17,923.71,206.27Z"/><path class="cls-3" d="M597.44,406.21c0-20.5,15.65-35.45,36.74-35.45,10.69,0,20,3.66,26.34,10.79l-6.43,6.24a25.72,25.72,0,0,0-19.52-8.22c-15.64,0-27.23,11.29-27.23,26.64s11.59,26.64,27.23,26.64a25.82,25.82,0,0,0,19.52-8.32l6.43,6.24c-6.34,7.13-15.65,10.89-26.44,10.89C613.09,441.66,597.44,426.71,597.44,406.21Z"/><path class="cls-3" d="M674.68,371.55h9.9v60.7h37.53v8.62H674.68Z"/><path class="cls-3" d="M731.71,411V371.55h9.91v39c0,15.35,7,22.28,19.5,22.28s19.61-6.93,19.61-22.28v-39h9.61V411c0,20.1-11,30.7-29.32,30.7S731.71,431.06,731.71,411Z"/><path class="cls-3" d="M870.24,422.15c0,11.89-9,18.72-26.53,18.72H810.63V371.55h31.1c15.94,0,24.85,6.73,24.85,17.92,0,7.53-3.86,12.78-9.31,15.45C865.09,407.1,870.24,412.94,870.24,422.15Zm-49.71-42.58v22.18h20.3c10.11,0,15.85-3.76,15.85-11.09s-5.74-11.09-15.85-11.09Zm39.71,41.79c0-8-5.94-11.59-16.93-11.59H820.53v23.08h22.78C854.3,432.85,860.24,429.38,860.24,421.36Z"/><polygon class="cls-2" points="547.72 446.35 355.62 607.8 355.62 545.62 565.08 364.23 547.72 446.35"/><polygon class="cls-2" points="573.5 129.1 354.97 68.04 354.97 5.85 631.08 83 573.5 129.1"/><polygon class="cls-4" points="356.4 5.85 80.29 83 80.35 83.24 80.29 83.26 165.22 444.79 355.75 607.8 355.75 545.62 205.86 417.02 137.87 129.1 356.4 68.04 356.4 5.85"/><polygon class="cls-5" points="270.11 254.11 283.28 311.94 202.03 298.25 188.35 241.05 188.58 241.1 168.53 156.31 207.38 146.17 355.8 104.79 356.14 104.68 356.48 104.79 356.48 156.14 356.14 156.25 218.25 194.54 230.24 247.75 270.11 254.11"/><polygon class="cls-5" points="355.82 455 355.82 508.88 355.65 509 355.48 508.88 223.84 400.1 209.7 331.86 355.65 454.88 355.82 455"/><polygon class="cls-3" points="541.4 156.35 503.76 197.22 356.77 156.41 356.15 156.24 356.49 156.13 356.49 104.78 356.77 104.83 541.4 156.35"/><polygon class="cls-3" points="509.97 292.23 487.45 400.11 356.76 508.11 355.8 508.89 355.8 455.01 355.63 454.9 356.76 453.94 451.3 374.27 458.34 341.44 424.78 335.81 437.39 280.74 470.22 285.98 509.97 292.23"/><path class="cls-4" d="M333.9,264.25a22.19,22.19,0,0,0-.84,6.13,23.81,23.81,0,0,0,14.3,21.79l-7,29.4L336,339.64h20.78v62.55L291.05,346l-7.77-34.06-13.17-57.83-5.69-24.83,92.34-25.84v43.24A23.75,23.75,0,0,0,333.9,264.25Z"/><path class="cls-2" d="M449.16,229.28l-11.77,51.46-12.61,55.07L422.47,346l-65.71,56.19V339.64h20.78l-2.93-12.33-8.39-35.14a23.69,23.69,0,0,0,14.19-20.49,9.43,9.43,0,0,0,.06-1.3,23.71,23.71,0,0,0-23.71-23.7V203.44Z"/></svg>