<?xml version="1.0" encoding="utf-8"?>
<!-- Generator: Adobe Illustrator 25.2.0, SVG Export Plug-In . SVG Version: 6.00 Build 0)  -->
<svg version="1.1" id="Layer_1" xmlns="http://www.w3.org/2000/svg" xmlns:xlink="http://www.w3.org/1999/xlink" x="0px" y="0px"
	 viewBox="0 0 513.93 433.33" style="enable-background:new 0 0 513.93 433.33;" xml:space="preserve">
<style type="text/css">
	.st0{fill:#22274F;}
	.st1{fill:#EBEAF6;}
	.st2{fill:#D7D7ED;}
	.st3{fill:#415BA6;}
	.st4{fill:#526AB0;}
	.st5{fill:#2B4597;}
	.st6{fill:#312E74;}
	.st7{fill:#211F44;}
	.st8{opacity:0.16;fill:#526AB0;}
	.st9{clip-path:url(#XMLID_5_);fill:#FFFFFF;}
	.st10{fill:#1E1B3B;}
	.st11{fill:#EC8276;}
	.st12{fill:#2B275D;}
	.st13{fill:#E1AD9D;}
	.st14{fill:#C8C5E4;}
	.st15{fill:#D8D5EC;}
	.st16{fill:#091218;}
	.st17{fill:#1C2934;}
	.st18{fill:#FFFFFF;}
	.st19{fill:#E16B5F;}
	.st20{clip-path:url(#XMLID_6_);fill:#2B275D;}
	.st21{fill:#F5D200;}
	.st22{fill:none;stroke:#F1AC09;stroke-width:0.2802;stroke-miterlimit:10;}
	.st23{fill:none;stroke:#FFFFFF;stroke-width:1.1206;stroke-linecap:round;stroke-linejoin:round;stroke-miterlimit:10;}
	.st24{fill:#3A53A0;}
	.st25{fill:#4562AB;}
	.st26{clip-path:url(#XMLID_7_);fill:#2B275D;}
	.st27{fill:none;stroke:#F1AC09;stroke-width:0.2834;stroke-miterlimit:10;}
	.st28{fill:none;stroke:#FFFFFF;stroke-width:1.1334;stroke-linecap:round;stroke-linejoin:round;stroke-miterlimit:10;}
	.st29{fill:none;stroke:#415BA6;stroke-width:2.6489;stroke-miterlimit:10;}
	.st30{fill:none;stroke:#526AB0;stroke-width:2.6489;stroke-miterlimit:10;}
	.st31{fill:#34509E;}
	.st32{fill:none;stroke:#2B275D;stroke-width:2.1624;stroke-miterlimit:10;}
	.st33{fill:none;stroke:#2B275D;stroke-width:1.1138;stroke-miterlimit:10;}
	.st34{fill:#373582;}
	.st35{fill:none;stroke:#526AB0;stroke-width:2.6489;stroke-linecap:round;stroke-linejoin:round;stroke-miterlimit:10;}
	.st36{clip-path:url(#XMLID_9_);fill:#FBFBFB;}
	.st37{fill:#E8C408;}
	.st38{clip-path:url(#XMLID_10_);fill:#FBFBFB;}
	.st39{fill:none;stroke:#415BA6;stroke-width:1.1366;stroke-linecap:round;stroke-linejoin:round;stroke-miterlimit:10;}
</style>
<g>
	<g>
		<path class="st0" d="M94.72,77.36c-1.8,0-3.35-0.25-4.66-0.76c-1.31-0.5-2.39-1.21-3.24-2.11c-0.85-0.9-1.48-1.97-1.89-3.22
			c-0.41-1.25-0.61-2.62-0.61-4.13V51.2h5.77v15.47c0,1.04,0.12,1.92,0.35,2.65s0.56,1.32,0.96,1.78c0.41,0.46,0.9,0.78,1.48,0.98
			c0.58,0.2,1.21,0.3,1.91,0.3c1.41,0,2.55-0.43,3.42-1.29c0.88-0.86,1.31-2.33,1.31-4.4V51.2h5.77v15.95c0,1.5-0.21,2.89-0.63,4.14
			c-0.42,1.26-1.06,2.34-1.92,3.24c-0.86,0.9-1.96,1.6-3.29,2.09S96.55,77.36,94.72,77.36z"/>
		<path class="st0" d="M110.49,58.05c0.94-0.27,2.15-0.52,3.63-0.76c1.48-0.23,3.03-0.35,4.66-0.35c1.65,0,3.03,0.22,4.13,0.65
			c1.1,0.43,1.97,1.04,2.61,1.83c0.64,0.79,1.1,1.73,1.37,2.81c0.27,1.09,0.41,2.29,0.41,3.63v10.99h-5.51V66.52
			c0-1.78-0.23-3.03-0.7-3.77c-0.47-0.74-1.34-1.11-2.63-1.11c-0.4,0-0.81,0.02-1.26,0.06c-0.44,0.04-0.84,0.08-1.18,0.13v15.02
			h-5.51V58.05z"/>
		<path class="st0" d="M149.45,76.21c-0.49,0.15-1.06,0.29-1.7,0.43c-0.64,0.14-1.31,0.25-2.02,0.35c-0.7,0.1-1.42,0.18-2.15,0.24
			c-0.73,0.06-1.42,0.09-2.09,0.09c-1.6,0-3.03-0.23-4.29-0.7c-1.26-0.47-2.32-1.14-3.18-2.02c-0.86-0.88-1.52-1.94-1.98-3.18
			c-0.46-1.25-0.68-2.65-0.68-4.2c0-1.58,0.2-3,0.59-4.27c0.39-1.27,0.96-2.35,1.7-3.24c0.74-0.89,1.65-1.57,2.72-2.04
			c1.07-0.47,2.3-0.7,3.68-0.7c0.76,0,1.45,0.07,2.05,0.22c0.6,0.15,1.21,0.36,1.83,0.63v-8.81l5.51-0.89V76.21z M136.98,66.96
			c0,1.7,0.38,3.07,1.15,4.11c0.76,1.04,1.9,1.55,3.4,1.55c0.49,0,0.95-0.02,1.37-0.06c0.42-0.04,0.76-0.08,1.04-0.13V62.41
			c-0.35-0.22-0.8-0.41-1.35-0.55s-1.12-0.22-1.68-0.22C138.28,61.64,136.98,63.41,136.98,66.96z"/>
		<path class="st0" d="M153.7,67.26c0-1.73,0.26-3.24,0.8-4.53c0.53-1.29,1.23-2.37,2.09-3.24c0.86-0.86,1.86-1.52,2.98-1.96
			s2.28-0.67,3.46-0.67c2.76,0,4.95,0.85,6.55,2.53c1.6,1.69,2.4,4.17,2.4,7.46c0,0.32-0.01,0.67-0.04,1.05
			c-0.02,0.38-0.05,0.72-0.07,1.02h-12.51c0.12,1.13,0.65,2.04,1.59,2.7c0.94,0.67,2.2,1,3.77,1c1.01,0,2-0.09,2.98-0.28
			c0.97-0.19,1.77-0.41,2.39-0.68l0.74,4.48c-0.3,0.15-0.69,0.3-1.18,0.44c-0.49,0.15-1.04,0.28-1.65,0.39
			c-0.6,0.11-1.25,0.2-1.94,0.28c-0.69,0.07-1.38,0.11-2.07,0.11c-1.75,0-3.27-0.26-4.57-0.78c-1.29-0.52-2.37-1.23-3.22-2.13
			c-0.85-0.9-1.48-1.97-1.89-3.2C153.9,70.02,153.7,68.69,153.7,67.26z M166.65,65.15c-0.02-0.47-0.11-0.93-0.24-1.37
			c-0.14-0.44-0.35-0.84-0.63-1.18c-0.28-0.35-0.64-0.63-1.07-0.85c-0.43-0.22-0.97-0.33-1.61-0.33c-0.62,0-1.15,0.11-1.59,0.31
			c-0.44,0.21-0.81,0.49-1.11,0.83c-0.3,0.35-0.52,0.75-0.68,1.2c-0.16,0.46-0.28,0.92-0.35,1.39H166.65z"/>
		<path class="st0" d="M187.96,62.26c-0.49-0.12-1.07-0.25-1.74-0.39c-0.67-0.14-1.38-0.2-2.15-0.2c-0.35,0-0.76,0.03-1.24,0.09
			c-0.48,0.06-0.85,0.13-1.09,0.2v14.87h-5.51V58.42c0.99-0.35,2.15-0.67,3.5-0.98c1.34-0.31,2.84-0.46,4.5-0.46
			c0.3,0,0.65,0.02,1.07,0.06s0.84,0.09,1.26,0.15c0.42,0.06,0.84,0.14,1.26,0.22s0.78,0.19,1.07,0.31L187.96,62.26z"/>
		<path class="st0" d="M199.8,67.11c0-1.41,0.23-2.73,0.68-3.98c0.46-1.25,1.12-2.33,1.98-3.26c0.86-0.93,1.91-1.66,3.15-2.2
			c1.23-0.54,2.64-0.81,4.22-0.81c1.04,0,1.99,0.09,2.85,0.28c0.86,0.19,1.7,0.45,2.52,0.8l-1.15,4.4c-0.52-0.2-1.09-0.37-1.7-0.52
			c-0.62-0.15-1.31-0.22-2.07-0.22c-1.63,0-2.84,0.51-3.64,1.52c-0.8,1.01-1.2,2.34-1.2,4c0,1.75,0.38,3.11,1.13,4.07
			c0.75,0.96,2.07,1.44,3.94,1.44c0.67,0,1.38-0.06,2.15-0.19c0.76-0.12,1.47-0.32,2.11-0.59l0.78,4.51
			c-0.64,0.27-1.44,0.51-2.41,0.7c-0.96,0.2-2.02,0.3-3.18,0.3c-1.78,0-3.31-0.27-4.59-0.8c-1.28-0.53-2.34-1.25-3.16-2.16
			c-0.83-0.91-1.43-1.99-1.81-3.24C199.99,69.92,199.8,68.57,199.8,67.11z"/>
		<path class="st0" d="M236.51,67.07c0,1.53-0.22,2.93-0.67,4.2s-1.09,2.36-1.92,3.26c-0.84,0.9-1.84,1.6-3.02,2.09
			c-1.17,0.49-2.49,0.74-3.94,0.74c-1.43,0-2.73-0.25-3.9-0.74c-1.17-0.49-2.18-1.19-3.02-2.09c-0.84-0.9-1.49-1.99-1.96-3.26
			c-0.47-1.27-0.7-2.67-0.7-4.2c0-1.53,0.24-2.92,0.72-4.18c0.48-1.26,1.15-2.33,2-3.22c0.85-0.89,1.86-1.58,3.03-2.07
			c1.17-0.49,2.45-0.74,3.83-0.74c1.41,0,2.69,0.25,3.87,0.74c1.17,0.49,2.18,1.18,3.02,2.07c0.84,0.89,1.49,1.96,1.96,3.22
			C236.27,64.15,236.51,65.54,236.51,67.07z M230.88,67.07c0-1.7-0.34-3.04-1.02-4.01c-0.68-0.97-1.65-1.46-2.9-1.46
			s-2.23,0.49-2.92,1.46c-0.69,0.98-1.04,2.31-1.04,4.01s0.35,3.05,1.04,4.05c0.69,1,1.67,1.5,2.92,1.5s2.23-0.5,2.9-1.5
			C230.54,70.13,230.88,68.78,230.88,67.07z"/>
		<path class="st0" d="M240.76,58.05c0.94-0.27,2.15-0.52,3.63-0.76c1.48-0.23,3.03-0.35,4.66-0.35c1.65,0,3.03,0.22,4.13,0.65
			c1.1,0.43,1.97,1.04,2.61,1.83c0.64,0.79,1.1,1.73,1.37,2.81c0.27,1.09,0.41,2.29,0.41,3.63v10.99h-5.51V66.52
			c0-1.78-0.23-3.03-0.7-3.77c-0.47-0.74-1.34-1.11-2.63-1.11c-0.4,0-0.81,0.02-1.26,0.06c-0.44,0.04-0.84,0.08-1.18,0.13v15.02
			h-5.51V58.05z"/>
		<path class="st0" d="M268.14,72.88c1.01,0,1.73-0.1,2.15-0.3c0.42-0.2,0.63-0.58,0.63-1.15c0-0.44-0.27-0.83-0.81-1.17
			c-0.54-0.33-1.37-0.71-2.48-1.13c-0.86-0.32-1.65-0.65-2.35-1c-0.7-0.35-1.3-0.76-1.79-1.24c-0.49-0.48-0.88-1.05-1.15-1.72
			c-0.27-0.67-0.41-1.47-0.41-2.41c0-1.83,0.68-3.27,2.04-4.33c1.36-1.06,3.22-1.59,5.59-1.59c1.18,0,2.32,0.1,3.4,0.31
			c1.09,0.21,1.95,0.44,2.59,0.68l-0.96,4.29c-0.64-0.22-1.34-0.42-2.09-0.59c-0.75-0.17-1.6-0.26-2.53-0.26
			c-1.73,0-2.59,0.48-2.59,1.44c0,0.22,0.04,0.42,0.11,0.59c0.07,0.17,0.22,0.34,0.44,0.5c0.22,0.16,0.52,0.33,0.91,0.52
			c0.38,0.19,0.87,0.39,1.46,0.62c1.21,0.45,2.21,0.89,3,1.32s1.41,0.91,1.87,1.41c0.46,0.5,0.78,1.06,0.96,1.68
			s0.28,1.33,0.28,2.14c0,1.92-0.72,3.37-2.16,4.36c-1.44,0.98-3.48,1.48-6.12,1.48c-1.73,0-3.16-0.15-4.31-0.44
			c-1.15-0.3-1.94-0.54-2.39-0.74l0.93-4.48c0.94,0.37,1.9,0.66,2.89,0.87C266.2,72.78,267.18,72.88,268.14,72.88z"/>
		<path class="st0" d="M280.31,52.53l5.51-0.89v5.73h6.62v4.59h-6.62v6.85c0,1.16,0.2,2.08,0.61,2.77c0.41,0.69,1.23,1.04,2.46,1.04
			c0.59,0,1.2-0.06,1.83-0.17c0.63-0.11,1.2-0.27,1.72-0.46l0.78,4.29c-0.67,0.27-1.41,0.51-2.22,0.7s-1.81,0.3-3,0.3
			c-1.5,0-2.75-0.2-3.74-0.61c-0.99-0.41-1.78-0.97-2.37-1.7c-0.59-0.73-1.01-1.61-1.24-2.65c-0.23-1.04-0.35-2.18-0.35-3.44V52.53z
			"/>
		<path class="st0" d="M308.65,62.26c-0.49-0.12-1.07-0.25-1.74-0.39c-0.67-0.14-1.38-0.2-2.15-0.2c-0.35,0-0.76,0.03-1.24,0.09
			c-0.48,0.06-0.85,0.13-1.09,0.2v14.87h-5.51V58.42c0.99-0.35,2.15-0.67,3.5-0.98c1.34-0.31,2.84-0.46,4.5-0.46
			c0.3,0,0.65,0.02,1.07,0.06s0.84,0.09,1.26,0.15c0.42,0.06,0.84,0.14,1.26,0.22s0.78,0.19,1.07,0.31L308.65,62.26z"/>
		<path class="st0" d="M329.15,76.18c-0.94,0.27-2.15,0.52-3.63,0.76c-1.48,0.23-3.03,0.35-4.66,0.35c-1.65,0-3.03-0.22-4.12-0.67
			c-1.1-0.44-1.97-1.07-2.61-1.87c-0.64-0.8-1.1-1.76-1.37-2.87c-0.27-1.11-0.41-2.33-0.41-3.66V57.38h5.51v10.17
			c0,1.78,0.23,3.06,0.7,3.85c0.47,0.79,1.34,1.18,2.63,1.18c0.39,0,0.81-0.02,1.26-0.06c0.44-0.04,0.84-0.08,1.18-0.13V57.38h5.51
			V76.18z"/>
		<path class="st0" d="M333.41,67.11c0-1.41,0.23-2.73,0.68-3.98c0.46-1.25,1.12-2.33,1.98-3.26c0.86-0.93,1.91-1.66,3.15-2.2
			c1.23-0.54,2.64-0.81,4.22-0.81c1.04,0,1.99,0.09,2.85,0.28s1.7,0.45,2.52,0.8l-1.15,4.4c-0.52-0.2-1.09-0.37-1.7-0.52
			s-1.31-0.22-2.07-0.22c-1.63,0-2.84,0.51-3.64,1.52c-0.8,1.01-1.2,2.34-1.2,4c0,1.75,0.38,3.11,1.13,4.07
			c0.75,0.96,2.07,1.44,3.94,1.44c0.67,0,1.38-0.06,2.15-0.19s1.47-0.32,2.11-0.59l0.78,4.51c-0.64,0.27-1.44,0.51-2.41,0.7
			c-0.96,0.2-2.02,0.3-3.18,0.3c-1.78,0-3.31-0.27-4.59-0.8c-1.28-0.53-2.34-1.25-3.16-2.16c-0.83-0.91-1.43-1.99-1.81-3.24
			C333.6,69.92,333.41,68.57,333.41,67.11z"/>
		<path class="st0" d="M352.65,52.53l5.51-0.89v5.73h6.62v4.59h-6.62v6.85c0,1.16,0.2,2.08,0.61,2.77c0.41,0.69,1.23,1.04,2.46,1.04
			c0.59,0,1.2-0.06,1.83-0.17c0.63-0.11,1.2-0.27,1.72-0.46l0.78,4.29c-0.67,0.27-1.41,0.51-2.22,0.7c-0.81,0.2-1.81,0.3-3,0.3
			c-1.5,0-2.75-0.2-3.74-0.61c-0.99-0.41-1.78-0.97-2.37-1.7c-0.59-0.73-1-1.61-1.24-2.65c-0.23-1.04-0.35-2.18-0.35-3.44V52.53z"/>
		<path class="st0" d="M375.29,51.76c0,1.01-0.33,1.81-0.98,2.39c-0.65,0.58-1.42,0.87-2.31,0.87c-0.89,0-1.66-0.29-2.31-0.87
			c-0.65-0.58-0.98-1.37-0.98-2.39c0-1.01,0.33-1.81,0.98-2.39c0.65-0.58,1.42-0.87,2.31-0.87c0.89,0,1.66,0.29,2.31,0.87
			C374.96,49.95,375.29,50.75,375.29,51.76z M374.77,76.84h-5.51V57.38h5.51V76.84z"/>
		<path class="st0" d="M398.16,67.07c0,1.53-0.22,2.93-0.67,4.2c-0.44,1.27-1.09,2.36-1.92,3.26c-0.84,0.9-1.84,1.6-3.02,2.09
			c-1.17,0.49-2.49,0.74-3.94,0.74c-1.43,0-2.73-0.25-3.9-0.74c-1.17-0.49-2.18-1.19-3.02-2.09c-0.84-0.9-1.49-1.99-1.96-3.26
			c-0.47-1.27-0.7-2.67-0.7-4.2c0-1.53,0.24-2.92,0.72-4.18c0.48-1.26,1.15-2.33,2-3.22c0.85-0.89,1.86-1.58,3.03-2.07
			c1.17-0.49,2.45-0.74,3.83-0.74c1.41,0,2.69,0.25,3.87,0.74c1.17,0.49,2.18,1.18,3.02,2.07c0.84,0.89,1.49,1.96,1.96,3.22
			C397.92,64.15,398.16,65.54,398.16,67.07z M392.53,67.07c0-1.7-0.34-3.04-1.02-4.01c-0.68-0.97-1.65-1.46-2.9-1.46
			s-2.23,0.49-2.92,1.46c-0.69,0.98-1.04,2.31-1.04,4.01s0.34,3.05,1.04,4.05c0.69,1,1.67,1.5,2.92,1.5s2.23-0.5,2.9-1.5
			C392.19,70.13,392.53,68.78,392.53,67.07z"/>
		<path class="st0" d="M402.41,58.05c0.94-0.27,2.15-0.52,3.63-0.76c1.48-0.23,3.03-0.35,4.66-0.35c1.65,0,3.03,0.22,4.12,0.65
			s1.97,1.04,2.61,1.83s1.1,1.73,1.37,2.81c0.27,1.09,0.41,2.29,0.41,3.63v10.99h-5.51V66.52c0-1.78-0.24-3.03-0.7-3.77
			c-0.47-0.74-1.34-1.11-2.63-1.11c-0.4,0-0.81,0.02-1.26,0.06c-0.44,0.04-0.84,0.08-1.18,0.13v15.02h-5.51V58.05z"/>
		<path class="st0" d="M430.35,73.92c0,1.09-0.35,1.92-1.05,2.52c-0.7,0.59-1.5,0.89-2.39,0.89c-0.89,0-1.68-0.3-2.39-0.89
			c-0.7-0.59-1.05-1.43-1.05-2.52s0.35-1.92,1.05-2.52c0.7-0.59,1.5-0.89,2.39-0.89c0.89,0,1.68,0.3,2.39,0.89
			S430.35,72.83,430.35,73.92z M429.86,57.82c0,2-0.07,3.86-0.22,5.59c-0.15,1.73-0.35,3.48-0.59,5.25h-4.22
			c-0.25-1.78-0.45-3.53-0.61-5.25c-0.16-1.73-0.24-3.59-0.24-5.59V51.2h5.88V57.82z"/>
	</g>
</g>
<g>
	<g>
		<g>
			<path class="st1" d="M427.24,300.92c3.73-12.07,4.6-24.92,1.92-37.27c-4.18-19.32-17.64-42.71-56.48-52.8
				c-73.53-19.11-99.07-74.98-167.85-57.19c0,0-36.91,6.71-54.38,67.79c-17.47,61.08-85.92,62.12-62.36,115.3
				c3.85,8.69,14.23,18.17,29.12,27.13l278.95-0.94C415.44,339.78,421.44,319.73,427.24,300.92z"/>
		</g>
		<g>
			<path class="st2" d="M361.42,257.24h-10.47v-11.45c0-5.75-4-10.55-9.37-11.8v-14.21h-3.85v13.94
				c-6.18,0.56-11.02,5.74-11.02,12.07v11.79H316.3v13.13h-0.7v24.41l-18.92-0.14v-29.17h-21.68v21.38h-15.21v20.77h-18.39v54.97
				h61.09v-0.01h13.12v0.01h76.6v-69.32h-30.8L361.42,257.24z"/>
			<polygon class="st2" points="145.46,287.46 145.46,260.13 155.71,260.13 155.71,245.51 159.56,245.51 159.56,260.13 169,260.13 
				169,287.46 179.59,287.46 179.59,303.83 196.46,303.83 196.46,248.06 231.7,248.06 231.7,362.93 208.74,362.93 198.85,362.93 
				173.96,362.93 162.46,362.93 132.43,362.93 132.43,287.46 			"/>
		</g>
	</g>
	<g>
		<g>
			<g>
				<path class="st3" d="M337.95,362.65l-160.58,0.13c-6.08,0-11.02-4.92-11.02-11l0,0l182.61-0.14l0,0
					C348.96,357.71,344.03,362.65,337.95,362.65z"/>
				<path class="st4" d="M337.95,358.86l-160.58,0.13c-4.75,0-8.78-3-10.33-7.21l-0.68,0c0,6.08,4.94,11.01,11.02,11l160.58-0.13
					c6.08,0,11.01-4.94,11-11.02l-0.68,0C346.73,355.84,342.69,358.86,337.95,358.86z"/>
				<path class="st5" d="M268.03,355.38l-20.75,0.02c-2.04,0-3.69-1.65-3.69-3.68l0,0l28.12-0.02l0,0
					C271.71,353.73,270.06,355.38,268.03,355.38z"/>
			</g>
			<g>
				<path class="st4" d="M339.56,351.64l-163.81,0.13l-0.08-98.88c0-5.67,4.59-10.27,10.26-10.28l143.27-0.11
					c5.67,0,10.27,4.59,10.28,10.26L339.56,351.64z"/>
				<rect x="184.23" y="251.1" class="st6" width="146.75" height="92.06"/>
				<rect x="184.26" y="334.36" class="st7" width="146.75" height="8.8"/>
				<rect x="184.2" y="251.1" class="st7" width="146.75" height="4.37"/>
				<g>
					<polygon class="st8" points="233.14,251.12 184.23,300.1 184.27,343.22 184.37,343.22 276.36,251.08 					"/>
					<polygon class="st8" points="203.22,343.21 224.89,343.19 316.88,251.05 295.21,251.07 					"/>
					<polygon class="st8" points="313.76,343.12 331,325.84 330.98,293.16 279.2,343.14 					"/>
				</g>
			</g>
		</g>
		<g>
			<defs>
				<rect id="XMLID_8_" x="175.67" y="290.42" width="163.89" height="18.09"/>
			</defs>
			<use xlink:href="#XMLID_8_"  style="overflow:visible;fill:#F5D200;"/>
			<clipPath id="XMLID_5_">
				<use xlink:href="#XMLID_8_"  style="overflow:visible;"/>
			</clipPath>
			<polygon class="st9" points="196.11,314.86 182.01,314.86 194.15,287.09 208.25,287.09 			"/>
			<polygon class="st9" points="226.18,314.86 212.08,314.86 224.22,287.09 238.32,287.09 			"/>
			<polygon class="st9" points="256.26,314.86 242.15,314.86 254.29,287.09 268.39,287.09 			"/>
			<polygon class="st9" points="286.33,314.86 272.23,314.86 284.36,287.09 298.47,287.09 			"/>
			<polygon class="st9" points="316.4,314.86 302.3,314.86 314.44,287.09 328.54,287.09 			"/>
		</g>
	</g>
	<g>
		<g>
			<g>
				<g>
					<g>
						<path class="st10" d="M162.51,259.18l-3.2,0.12l-1.88-0.59c-0.86-0.27-1.8,0.05-2.31,0.8l-0.24,0.35l9.37,5.17l1.81-3.88
							L162.51,259.18z"/>
						<path class="st10" d="M164.26,265.12l-9.44-5.21l0.33-0.6c0.07-0.12,0.21-0.16,0.33-0.1l9.23,5.1L164.26,265.12"/>
					</g>
					<polygon class="st11" points="166.06,261.15 168.54,256.87 166.06,252.45 162.51,259.18 					"/>
				</g>
				<path class="st10" d="M185.45,236.52c0,0-13.35-3.83-14.63-0.23c-1.29,3.6-9.07,19.55-9.07,19.55l5.81,3.03l8.72-15.14
					l11.73-1.02L185.45,236.52z"/>
			</g>
			<g>
				<g>
					<g>
						<path class="st10" d="M174.6,264.04l-2.61,1.66l-1.93,0.39c-0.89,0.18-1.55,0.92-1.63,1.82l-0.04,0.42l10.7-0.02l-0.3-4.28
							L174.6,264.04z"/>
						<path class="st10" d="M179.14,268.39l-10.78,0.02l0-0.68c0-0.13,0.11-0.24,0.24-0.24l10.54-0.02L179.14,268.39"/>
					</g>
					<polygon class="st11" points="178.79,264.05 179.14,256.87 174.87,256.39 174.6,264.04 					"/>
				</g>
				<path class="st12" d="M187.25,235.91l-12.58,0.57c0,0-1.81,0.1-1.69,4.33c0.12,4.24,0.11,21.28,0.11,21.28l6.04,0.21l1.16-17.85
					l12.59-0.16c2.65-0.03,5.12-1.55,6.17-3.99c0.4-0.93,0.59-1.98,0.35-3.08L187.25,235.91z"/>
			</g>
		</g>
		<g>
			<g>
				<g>
					<path class="st13" d="M175.31,233.37c0,1.19-0.81,1.37-2,1.38c-1.19,0-2.32-0.17-2.32-1.37c0-1.19,0.96-2.16,2.16-2.17
						C174.34,231.21,175.31,232.18,175.31,233.37z"/>
					<path class="st13" d="M176.83,234.59l-2.5,0.01c-0.65,0-1.19-0.53-1.19-1.18l0,0c0-0.65,0.53-1.19,1.18-1.19l2.5-0.01
						c0.65,0,1.19,0.53,1.19,1.18l0,0C178.02,234.06,177.48,234.59,176.83,234.59z"/>
				</g>
				<path class="st14" d="M176.74,234.85l-0.83-4.09l10.27-1.12l2.05-12c0.21-1.09,1.79-2.44,2.88-2.24l-0.31-0.09
					c1.09,0.21,2.09,1.47,1.89,2.56l-2,14.36c-0.15,0.77-0.73,1.39-1.5,1.58L176.74,234.85z"/>
			</g>
			<path class="st15" d="M197.25,215.67c0.21,0.02,0.42,0.07,0.62,0.14l0.1,0.04c1.76,0.69,2.96,2.58,3.04,4.35l-1.61,17.03
				c-10.64-0.09-12.15-1.32-12.15-1.32l0.85-17.42c0.13-1.64,0.88-3.19,2.75-3.34l0,0L197.25,215.67z"/>
			<g>
				<g>
					<g>
						<path class="st11" d="M185.53,234.71c0.08,1.19-0.71,1.42-1.9,1.51c-1.19,0.08-2.33-0.02-2.41-1.21
							c-0.08-1.19,0.82-2.22,2.01-2.3C184.42,232.62,185.45,233.52,185.53,234.71z"/>
						<path class="st11" d="M187.13,235.83l-2.49,0.17c-0.65,0.04-1.22-0.45-1.27-1.1l0,0c-0.04-0.65,0.45-1.22,1.1-1.27l2.49-0.17
							c0.65-0.04,1.22,0.45,1.26,1.1l0,0C188.28,235.22,187.78,235.78,187.13,235.83z"/>
					</g>
					<path class="st15" d="M187.05,236.09l-1.1-4.02l11.19-1.8l-0.64-10.41c0.13-1.1,1.34-2.34,2.44-2.21l0,0
						c1.1,0.13,2.19,1.33,2.05,2.43l0.81,12.47c-0.1,0.78-0.64,1.44-1.39,1.67L187.05,236.09z"/>
				</g>
			</g>
			<g>
				<path class="st16" d="M167.68,222.26l12.21,1.15c0.4,0.04,0.72,0.35,0.77,0.75l1.28,11.01c0.06,0.54-0.39,1-0.93,0.95
					l-12.42-1.17c-0.41-0.04-0.73-0.36-0.77-0.77l-1.08-10.99C166.7,222.66,167.15,222.21,167.68,222.26z"/>
				<path class="st17" d="M166.98,222.19l12.21,1.15c0.4,0.04,0.72,0.35,0.77,0.75l1.28,11.01c0.06,0.54-0.39,1-0.93,0.95
					l-12.42-1.17c-0.41-0.04-0.73-0.36-0.77-0.77l-1.08-10.99C166,222.59,166.45,222.14,166.98,222.19z"/>
				<path class="st16" d="M181.61,235.25l8.34,0.79c0.25,0.02,0.44,0.25,0.42,0.5l0,0c-0.02,0.25-0.25,0.44-0.5,0.42l-8.85-0.8
					L181.61,235.25z"/>
				<path class="st18" d="M173.98,228.87c-0.07,0.73-0.72,1.27-1.46,1.21c-0.73-0.07-1.27-0.72-1.21-1.46
					c0.07-0.73,0.72-1.27,1.46-1.21C173.51,227.48,174.05,228.14,173.98,228.87z"/>
			</g>
			<polygon class="st14" points="196.11,222.26 196.39,230.08 185.95,232.06 195.15,229.19 			"/>
		</g>
		<g>
			<g>
				<path class="st11" d="M190.58,214.63l0.7,1.87c0.25,0.68,0.88,1.14,1.6,1.19l0,0c1.37,0.09,2.35-1.29,1.81-2.55l-1.22-2.88
					L190.58,214.63z"/>
				<path class="st19" d="M191.2,216.3c0,0,3.44-0.65,2.93-3.66c-0.51-3.01-3.74-0.66-3.74-0.66l0.32,3L191.2,216.3z"/>
				<g>
					<g>
						<defs>
							<path id="XMLID_1_" d="M185.89,207.3c-1.26,2.7-0.1,5.91,2.6,7.17c2.7,1.26,5.91,0.1,7.17-2.6c1.26-2.7,0.1-5.91-2.6-7.17
								C190.37,203.44,187.15,204.6,185.89,207.3z"/>
						</defs>
						<use xlink:href="#XMLID_1_"  style="overflow:visible;fill:#EC8276;"/>
						<clipPath id="XMLID_6_">
							<use xlink:href="#XMLID_1_"  style="overflow:visible;"/>
						</clipPath>
						<path class="st20" d="M192.78,210.65c0,0-0.85,4.32,2.33,4.42c3.18,0.09,1.45-8.11,1.45-8.11l-5.03-5.06l-7.69,1.89l0.76,4.97
							c0,0,1.22,0.65,7.84-0.44L192.78,210.65z"/>
						<polygon class="st20" points="189.64,207.27 192.17,210.96 194.35,208.56 						"/>
					</g>
					<path class="st11" d="M191.93,209.65c-0.36,0.76-0.03,1.67,0.74,2.03c0.76,0.36,1.67,0.03,2.03-0.74
						c0.36-0.76,0.03-1.67-0.74-2.03C193.2,208.55,192.29,208.88,191.93,209.65z"/>
				</g>
			</g>
			<g>
				<path class="st21" d="M184.84,208.68c0,0-1.17-4.25,1.59-6.88c2.27-2.17,5.99-2.03,8.01,0.38c0.95,1.13,1.71,2.84,1.78,5.4
					L184.84,208.68z"/>
				<path class="st22" d="M185.43,208.61l-0.03-2.65c-0.01-0.67,0.52-1.23,1.19-1.26l0,0c0.66-0.03,1.24,0.46,1.3,1.12l0.27,2.65"/>
				<line class="st23" x1="196.22" y1="207.58" x2="183.84" y2="208.77"/>
			</g>
		</g>
	</g>
	<g>
		<g>
			<g>
				<polygon class="st11" points="308.94,351.03 311.72,353.72 308.55,355.42 305.84,352.77 				"/>
				<path class="st10" d="M289.41,330.95l1.85,8.21c0.37,1.64,1.09,3.22,2.11,4.67l12.21,10.97l4.83-3.93l-10.42-11.04l-3.82-14.56
					L289.41,330.95z"/>
				<g>
					<path class="st10" d="M308.46,355.35l-1,3.19l-1.14,1.59c-0.53,0.73-0.51,1.72,0.05,2.43l0.26,0.33l7.79-7.26l-3.11-2.91
						L308.46,355.35z"/>
					<polyline class="st10" points="314.49,355.65 306.64,362.96 306.01,362.29 313.86,354.98 314.49,355.65 					"/>
				</g>
			</g>
			<g>
				<polygon class="st11" points="282.25,356.02 281.21,359.5 277.63,358.54 278.68,355.13 				"/>
				<path class="st12" d="M287.04,321.79l-10.01,33.85l6.32,1.58l5.64-16.97l6.92-11.1c0.35-0.5,0.7-1.01,0.99-1.55
					c0.55-1.02,0.8-2.12,0.79-3.23l-0.02-2.2L287.04,321.79z"/>
				<g>
					<path class="st10" d="M277.84,358.21l-3.16,1.17l-1.97,0.07c-0.91,0.03-1.68,0.66-1.91,1.53l-0.11,0.41l10.58,1.74l0.41-4.28
						L277.84,358.21z"/>
					<polyline class="st10" points="281.31,363.2 270.64,361.45 270.79,360.53 281.46,362.29 281.31,363.2 					"/>
				</g>
			</g>
		</g>
		<g>
			<g>
				<g>
					<polygon class="st24" points="273.06,287.41 269.02,293.73 270.96,295.12 275.15,288.44 					"/>
					<path class="st25" d="M267.81,276.95c0,0,1.87,7.83,11.35,10.91c0.27,0.09,0.48,0.32,0.52,0.6c0.12,0.91,0.12,2.87-1.97,3.45
						c-0.2,0.05-0.42,0.01-0.59-0.09c-1.45-0.91-8.58-5.07-15.5-3.87L267.81,276.95z"/>
					<path class="st24" d="M267.81,276.95c0,0-1.74,7.81-6.2,10.99C261.61,287.94,262.24,281.09,267.81,276.95z"/>
				</g>
				<g>
					<g>
						<g>
							<path class="st11" d="M267.7,293.32c-0.29,1.44,0.89,3.19,2.33,3.48c1.44,0.29,2.84-0.63,3.13-2.07
								c0.29-1.44-0.89-3.19-2.33-3.48C269.39,290.95,267.99,291.88,267.7,293.32z"/>
						</g>
						<polyline class="st11" points="275.3,297.53 272.5,294.6 270.66,296.86 275.3,300.26 						"/>
					</g>
					<path class="st14" d="M274.86,294.82l-2.97,4.41l8.11,7.42c0.49,0.14,1.01,0.19,1.52,0.15l10.71-1.39
						c1.69-0.08,2.99-1.51,2.91-3.2l0,0c-0.08-1.69,0.24-4.13-1.44-4.05l-12.44,2.56L274.86,294.82z"/>
				</g>
			</g>
			<g>
				<g>
					<path class="st15" d="M298.87,304.94c0.29-2.34-0.78-4.65-2.76-5.93c-0.89-0.57-1.78-0.96-2.41-0.85
						c-2.14,0.36-4.33,1.33-5.27,4.21c-1.6,4.9-2.05,19.39-2.05,19.39l11.48,0.39L298.87,304.94z"/>
				</g>
				<polygon class="st14" points="294.63,305.31 298.08,317.99 298.78,307.23 				"/>
			</g>
			<g>
				<g>
					<g>
						<path class="st11" d="M308.7,330.33c1.08-0.99,1.16-3.1,0.18-4.18c-0.99-1.08-2.67-1.16-3.75-0.18
							c-1.09,0.99-1.16,3.1-0.18,4.18C305.94,331.24,307.62,331.32,308.7,330.33z"/>
					</g>
					<polyline class="st11" points="303.49,321.3 305.59,326.46 308.4,325.72 306.66,320.24 					"/>
				</g>
				<path class="st15" d="M303.63,325.28l5.75-1.26l-3.9-13.33c-0.14-0.49-0.38-0.96-0.69-1.37l-7.16-8.91
					c-0.97-1.39-2.6-1.14-3.98-0.17l0,0c-1.39,0.97-1.72,2.87-0.76,4.26l6.89,8.29L303.63,325.28z"/>
			</g>
		</g>
		<g>
			<g>
				<path class="st11" d="M291.01,296.42l0.22,2.01c0.08,0.73,0.57,1.34,1.27,1.56l0,0c1.32,0.43,2.62-0.68,2.41-2.05l-0.48-3.13
					L291.01,296.42z"/>
				<path class="st19" d="M291.2,298.21c0,0,3.54-0.12,3.8-3.19c0.25-3.07-3.51-1.24-3.51-1.24l-0.44,3.02L291.2,298.21z"/>
				<g>
					<g>
						<defs>
							<path id="XMLID_11_" d="M288.24,288.07c-1.91,2.33-1.57,5.77,0.76,7.68c2.33,1.91,5.77,1.57,7.68-0.76
								c1.91-2.33,1.57-5.77-0.76-7.68C293.59,285.4,290.15,285.74,288.24,288.07z"/>
						</defs>
						<use xlink:href="#XMLID_11_"  style="overflow:visible;fill:#EC8276;"/>
						<clipPath id="XMLID_7_">
							<use xlink:href="#XMLID_11_"  style="overflow:visible;"/>
						</clipPath>
						<path class="st26" d="M294.16,293.07c0,0-1.91,4.03,1.18,4.91c3.09,0.88,3.44-7.59,3.44-7.59l-3.67-6.21l-8.01-0.06
							l-0.49,5.07c0,0,1.04,0.94,7.79,1.52L294.16,293.07z"/>
						<polygon class="st26" points="291.93,288.97 293.48,293.22 296.22,291.41 						"/>
					</g>
					<path class="st11" d="M293.58,291.87c-0.54,0.66-0.44,1.63,0.22,2.17c0.66,0.54,1.63,0.44,2.17-0.22
						c0.54-0.66,0.44-1.63-0.22-2.17C295.09,291.12,294.12,291.21,293.58,291.87z"/>
				</g>
			</g>
			<g>
				<path class="st21" d="M286.84,289.63c0,0-0.27-4.45,3.01-6.48c2.7-1.67,6.35-0.76,7.85,2.05c0.7,1.32,1.1,3.16,0.64,5.71
					L286.84,289.63z"/>
				<path class="st27" d="M287.43,289.69l0.52-2.63c0.13-0.67,0.77-1.11,1.44-1l0,0c0.66,0.11,1.13,0.72,1.05,1.38l-0.29,2.68"/>
				<line class="st28" x1="298.33" y1="290.91" x2="285.83" y2="289.51"/>
			</g>
		</g>
	</g>
	<g>
		<g>
			<line class="st29" x1="374.63" y1="323.27" x2="361.7" y2="336.02"/>
			<line class="st29" x1="374.63" y1="309.64" x2="361.7" y2="322.39"/>
			<line class="st29" x1="374.63" y1="296.01" x2="361.7" y2="308.76"/>
			<line class="st29" x1="374.63" y1="282.39" x2="361.7" y2="295.14"/>
			<line class="st29" x1="374.63" y1="268.76" x2="361.7" y2="281.51"/>
			<line class="st29" x1="374.63" y1="255.14" x2="361.7" y2="267.89"/>
			<line class="st29" x1="374.63" y1="241.51" x2="361.7" y2="254.26"/>
			<line class="st29" x1="374.63" y1="227.88" x2="361.7" y2="240.63"/>
			<line class="st29" x1="374.63" y1="214.26" x2="361.7" y2="227.01"/>
			<line class="st29" x1="374.63" y1="200.63" x2="361.7" y2="213.38"/>
			<line class="st29" x1="374.63" y1="187.01" x2="361.7" y2="199.76"/>
			<line class="st29" x1="361.7" y1="322.39" x2="374.63" y2="322.39"/>
			<line class="st29" x1="361.7" y1="308.76" x2="374.63" y2="308.76"/>
			<line class="st29" x1="361.7" y1="295.14" x2="374.63" y2="295.14"/>
			<line class="st29" x1="361.7" y1="281.51" x2="374.63" y2="281.51"/>
			<line class="st29" x1="361.7" y1="267.89" x2="374.63" y2="267.89"/>
			<line class="st29" x1="361.7" y1="254.26" x2="374.63" y2="254.26"/>
			<line class="st29" x1="361.7" y1="240.63" x2="374.63" y2="240.63"/>
			<line class="st29" x1="361.7" y1="227.01" x2="374.63" y2="227.01"/>
			<line class="st29" x1="361.7" y1="213.38" x2="374.63" y2="213.38"/>
			<line class="st29" x1="361.7" y1="199.76" x2="374.63" y2="199.76"/>
			<line class="st30" x1="361.7" y1="339.71" x2="361.7" y2="189.19"/>
			<line class="st30" x1="374.63" y1="339.71" x2="374.63" y2="189.19"/>
			<rect x="355.03" y="336.02" class="st12" width="25.76" height="26.76"/>
		</g>
		<g>
			<g>
				<path class="st3" d="M374.67,189.19H361.2c-2.38,0-4.3-1.93-4.3-4.3V168c0-2.38,1.93-4.3,4.3-4.3h13.46c2.38,0,4.3,1.93,4.3,4.3
					v16.89C378.97,187.26,377.04,189.19,374.67,189.19z"/>
				<path class="st31" d="M367.58,181.77h-8.67v-11.92h8.67c1.8,0,3.26,1.46,3.26,3.26v5.41
					C370.84,180.31,369.38,181.77,367.58,181.77z"/>
			</g>
			<g>
				<g>
					<line class="st32" x1="276.36" y1="190.58" x2="286.71" y2="220.63"/>
					<line class="st32" x1="269.17" y1="187.01" x2="248.99" y2="214.26"/>
					<g>
						<path class="st21" d="M275.19,200.38l20.85,27.26c2.29,3,1.72,7.29-1.28,9.59l-27.26,20.85c-3,2.29-7.29,1.72-9.59-1.28
							l-20.85-27.26c-2.29-3-1.72-7.29,1.28-9.59l27.26-20.85C268.61,196.81,272.9,197.38,275.19,200.38z"/>
						<path class="st33" d="M273.62,205.51l17.06,22.31c1.88,2.45,1.41,5.97-1.05,7.84l-22.31,17.06c-2.45,1.88-5.97,1.41-7.84-1.05
							l-17.06-22.31c-1.88-2.45-1.41-5.97,1.05-7.84l22.31-17.06C268.23,202.58,271.74,203.05,273.62,205.51z"/>
						<g>
							<path class="st12" d="M268.32,238.76c-0.54,4.05-6.68,3.23-6.14-0.82C262.72,233.86,268.87,234.68,268.32,238.76z
								 M270.96,216.15l-2.41,17.01l-5.17-0.69c0.76-5.72,1.4-11.29,2.17-17.05L270.96,216.15z"/>
						</g>
					</g>
				</g>
				<g>
					<g>
						<circle class="st12" cx="273.41" cy="184.46" r="8.65"/>
						<path class="st34" d="M279.53,184.46c0,3.38-2.74,6.12-6.12,6.12c-3.38,0-6.12-2.74-6.12-6.12c0-3.38,2.74-6.12,6.12-6.12
							C276.79,178.34,279.53,181.08,279.53,184.46z"/>
					</g>
					<g>
						<line class="st29" x1="307.33" y1="145.36" x2="307.33" y2="163.7"/>
						<line class="st29" x1="290.89" y1="145.36" x2="290.89" y2="163.7"/>
						<line class="st29" x1="323.72" y1="145.36" x2="323.72" y2="163.7"/>
						<line class="st29" x1="341.93" y1="145.36" x2="341.93" y2="163.7"/>
						<line class="st29" x1="358.91" y1="145.36" x2="358.91" y2="163.7"/>
						<line class="st29" x1="376.52" y1="145.36" x2="376.52" y2="163.7"/>
						<line class="st29" x1="393.82" y1="145.36" x2="393.82" y2="163.7"/>
						<line class="st29" x1="290.03" y1="163.7" x2="307.33" y2="145.36"/>
						<line class="st29" x1="307.33" y1="163.7" x2="324.63" y2="145.36"/>
						<line class="st29" x1="324.63" y1="163.7" x2="341.93" y2="145.36"/>
						<line class="st29" x1="341.93" y1="163.7" x2="359.23" y2="145.36"/>
						<line class="st29" x1="359.23" y1="163.7" x2="376.52" y2="145.36"/>
						<line class="st29" x1="376.52" y1="163.7" x2="393.82" y2="145.36"/>
						<polygon class="st35" points="273.41,163.7 414.45,163.7 395.46,145.36 288,145.36 						"/>
						<line class="st35" x1="273.41" y1="163.7" x2="273.41" y2="184.46"/>
					</g>
				</g>
			</g>
		</g>
	</g>
	<g>
		<g>
			<g>
				<defs>
					<path id="XMLID_4_" d="M198.85,360.3l9.87-25.52c0.47-1.22,2.19-1.22,2.66,0l9.87,25.52H198.85z"/>
				</defs>
				<use xlink:href="#XMLID_4_"  style="overflow:visible;fill:#F5D200;"/>
				<clipPath id="XMLID_9_">
					<use xlink:href="#XMLID_4_"  style="overflow:visible;"/>
				</clipPath>
				<rect x="201.13" y="340.27" class="st36" width="17.53" height="5.42"/>
				<rect x="200.18" y="350.51" class="st36" width="19.83" height="5.42"/>
			</g>
			<rect x="197.04" y="360.3" class="st37" width="26.13" height="2.15"/>
		</g>
		<g>
			<g>
				<defs>
					<path id="XMLID_3_" d="M342.2,360.38l9.87-25.52c0.47-1.22,2.19-1.22,2.66,0l9.87,25.52H342.2z"/>
				</defs>
				<use xlink:href="#XMLID_3_"  style="overflow:visible;fill:#F5D200;"/>
				<clipPath id="XMLID_10_">
					<use xlink:href="#XMLID_3_"  style="overflow:visible;"/>
				</clipPath>
				<rect x="344.49" y="340.35" class="st38" width="17.53" height="5.42"/>
				<rect x="343.53" y="350.58" class="st38" width="19.83" height="5.42"/>
			</g>
			<rect x="340.4" y="360.38" class="st37" width="26.13" height="2.15"/>
		</g>
	</g>
	<g>
		<g>
			
				<ellipse transform="matrix(0.1473 -0.9891 0.9891 0.1473 -190.3563 414.5006)" class="st4" cx="145.22" cy="317.65" rx="20.5" ry="20.5"/>
			<g>
				<line class="st39" x1="145.22" y1="310.35" x2="145.22" y2="362.45"/>
				<line class="st39" x1="137.25" y1="311.41" x2="145.22" y2="320.35"/>
				<path class="st39" d="M152.3,319.86c-0.57,0.57-7.07,7.34-7.07,7.34"/>
			</g>
		</g>
		<line class="st39" x1="83.51" y1="362.95" x2="427.42" y2="362.95"/>
	</g>
</g>
</svg>
